<svg width="22" height="19" viewBox="0 0 22 19" fill="none" xmlns="http://www.w3.org/2000/svg">
<path d="M2.96716 4.64816C2.96716 5.55156 3.23505 6.43468 3.73696 7.18583C4.23886 7.93698 4.95223 8.52243 5.78687 8.86815C6.62151 9.21387 7.53991 9.30432 8.42596 9.12808C9.312 8.95183 10.1259 8.5168 10.7647 7.878C11.4035 7.2392 11.8385 6.42531 12.0148 5.53927C12.191 4.65323 12.1006 3.73482 11.7548 2.90018C11.4091 2.06555 10.8237 1.35217 10.0725 0.850269C9.32137 0.348365 8.43825 0.0804749 7.53485 0.0804749C6.32342 0.0804749 5.16161 0.561712 4.30501 1.41832C3.4484 2.27493 2.96716 3.43673 2.96716 4.64816Z" fill="#B2B2B2"/>
<rect x="0.683289" y="11.4997" width="13.7031" height="6.85153" rx="3.42576" fill="#B2B2B2"/>
<path fill-rule="evenodd" clip-rule="evenodd" d="M18.9539 4.64816H16.6701V6.93233H14.3864L14.3864 9.21617H16.6701V11.4997H18.9539V9.21617H21.2379V6.93233H18.9539V4.64816Z" fill="#B2B2B2"/>
</svg>
