<svg width="25" height="25" viewBox="0 0 25 25" fill="none" xmlns="http://www.w3.org/2000/svg">
<g clip-path="url(#clip0_206_257)">
<path d="M24.1973 12.0148H14.7054C14.2917 12.0148 13.956 11.6791 13.956 11.2654C13.956 10.8518 14.2917 10.5161 14.7054 10.5161H24.1973C24.611 10.5161 24.9467 10.8518 24.9467 11.2654C24.9467 11.6791 24.611 12.0148 24.1973 12.0148Z" fill="#828282"/>
<path d="M20.451 15.7608C20.259 15.7608 20.0673 15.6878 19.9213 15.5411C19.6286 15.2482 19.6286 14.7736 19.9213 14.4809L23.1387 11.2637L19.9213 8.04637C19.6286 7.75365 19.6286 7.27907 19.9213 6.98635C20.2142 6.69345 20.6888 6.69345 20.9815 6.98635L24.7283 10.7332C25.021 11.0259 25.021 11.5005 24.7283 11.7932L20.9815 15.54C20.8346 15.6878 20.6429 15.7608 20.451 15.7608Z" fill="#828282"/>
<path d="M8.96048 24.754C8.74662 24.754 8.54372 24.724 8.34102 24.6611L2.328 22.6578C1.50985 22.372 0.967224 21.6097 0.967224 20.7575V2.77277C0.967224 1.67069 1.8635 0.774414 2.96558 0.774414C3.17927 0.774414 3.38216 0.804418 3.58505 0.867353L9.59788 2.87065C10.4162 3.15642 10.9587 3.91877 10.9587 4.77095V22.7557C10.9587 23.8577 10.0626 24.754 8.96048 24.754ZM2.96558 2.27314C2.69079 2.27314 2.46595 2.49798 2.46595 2.77277V20.7575C2.46595 20.9702 2.60883 21.168 2.81264 21.239L8.79748 23.2333C8.84047 23.2472 8.89645 23.2553 8.96048 23.2553C9.23527 23.2553 9.45994 23.0304 9.45994 22.7557V4.77095C9.45994 4.55818 9.31705 4.36041 9.11325 4.28943L3.12841 2.29509C3.08542 2.28119 3.02943 2.27314 2.96558 2.27314Z" fill="#828282"/>
<path d="M16.2041 8.76681C15.7905 8.76681 15.4547 8.43109 15.4547 8.01744V3.52127C15.4547 2.83283 14.8944 2.27227 14.2059 2.27227H2.96549C2.55184 2.27227 2.21613 1.93656 2.21613 1.52291C2.21613 1.10926 2.55184 0.773544 2.96549 0.773544H14.2059C15.7217 0.773544 16.9535 2.00553 16.9535 3.52127V8.01744C16.9535 8.43109 16.6178 8.76681 16.2041 8.76681Z" fill="#828282"/>
<path d="M14.206 21.7561H10.2093C9.79567 21.7561 9.45996 21.4204 9.45996 21.0067C9.45996 20.5931 9.79567 20.2574 10.2093 20.2574H14.206C14.8945 20.2574 15.4549 19.6968 15.4549 19.0084V14.5122C15.4549 14.0985 15.7906 13.7628 16.2042 13.7628C16.6179 13.7628 16.9536 14.0985 16.9536 14.5122V19.0084C16.9536 20.5241 15.7218 21.7561 14.206 21.7561Z" fill="#828282"/>
</g>
<defs>
<clipPath id="clip0_206_257">
<rect width="23.9803" height="23.9803" fill="white" transform="translate(0.967285 0.772949)"/>
</clipPath>
</defs>
</svg>
