<svg width="64" height="64" viewBox="0 0 64 64" fill="none" xmlns="http://www.w3.org/2000/svg">
<path d="M39.1991 55.8085L26.0698 55.8083C26.6504 57.0603 27.5769 58.12 28.74 58.8627C29.9031 59.6054 31.2543 60 32.6343 60C34.0143 60 35.3656 59.6055 36.5287 58.8628C37.6918 58.1202 38.6184 57.0604 39.1991 55.8085Z" fill="#F4C842"/>
<path d="M30.6289 20.0132C30.4801 30.9972 43.2715 37.8716 52.3243 31.7213C63.8046 24.1288 58.5872 6.1193 44.6388 6.0033C40.9267 6.01492 37.37 7.49469 34.7451 10.1196C32.1203 12.7444 30.6405 16.3012 30.6289 20.0132ZM35.6425 18.7023L50.3928 12.628C50.6907 12.5122 51.0158 12.4855 51.3285 12.5513C51.6412 12.6171 51.9281 12.7724 52.154 12.9984C52.38 13.2243 52.5353 13.5111 52.6011 13.8239C52.6668 14.1366 52.6402 14.4617 52.5244 14.7595L46.45 29.5099C46.3462 29.7569 46.1835 29.9746 45.976 30.144C45.7685 30.3134 45.5226 30.4294 45.2599 30.4817C44.9972 30.5341 44.7257 30.5212 44.4691 30.4442C44.2125 30.3672 43.9787 30.2285 43.7882 30.0402L41.3065 27.5586L39.0148 27.7787C38.5964 27.8183 38.1787 27.6962 37.8475 27.4376C37.5162 27.1789 37.2966 26.8033 37.2336 26.3877L36.7532 23.0053L35.1121 21.3642C34.9261 21.1726 34.7895 20.9386 34.7139 20.6825C34.6384 20.4264 34.6262 20.1558 34.6783 19.894C34.7305 19.6321 34.8455 19.3868 35.0135 19.1793C35.1814 18.9717 35.3973 18.808 35.6425 18.7023Z" fill="#F4C842"/>
<path d="M38.7146 22.6051L39.165 25.7573C39.1813 25.7493 41.5191 25.5304 41.4465 25.5371C41.6605 25.5373 41.8724 25.5798 42.07 25.6622C42.2675 25.7447 42.4467 25.8654 42.5973 26.0175L44.809 28.2391L50.3329 14.8196L36.9233 20.3435L38.2542 21.6845C38.5064 21.9311 38.6685 22.2553 38.7146 22.6051Z" fill="#F4C842"/>
<path d="M54.836 45.6213H32.5802C32.4486 45.6218 32.3181 45.5962 32.1963 45.5461C32.0745 45.496 31.9638 45.4223 31.8706 45.3294C31.7773 45.2364 31.7033 45.1259 31.6528 45.0043C31.6024 44.8827 31.5764 44.7523 31.5764 44.6206C31.5764 44.489 31.6024 44.3586 31.6528 44.2369C31.7033 44.1153 31.7773 44.0049 31.8706 43.9119C31.9638 43.8189 32.0745 43.7453 32.1963 43.6952C32.3181 43.6451 32.4486 43.6195 32.5802 43.6199H52.3242V34.0632C50.3988 35.1163 48.2775 35.7623 46.0919 35.9613C43.9064 36.1602 41.7032 35.9078 39.6193 35.2196C37.5354 34.5314 35.6152 33.4223 33.9779 31.9609C32.3406 30.4996 31.0211 28.7173 30.1015 26.7247C29.1818 24.7321 28.6815 22.5717 28.6317 20.3777C28.5819 18.1837 28.9837 16.0028 29.812 13.9706C30.6403 11.9383 31.8776 10.098 33.4469 8.56387C35.0162 7.02977 36.8842 5.83463 38.9347 5.05265C35.973 4.0465 32.8141 3.76114 29.72 4.22025C26.626 4.67935 23.686 5.86969 21.1441 7.69248C18.6022 9.51527 16.5316 11.918 15.1041 14.7012C13.6767 17.4844 12.9335 20.5679 12.9363 23.6958V43.64C12.9347 43.9091 12.8777 44.175 12.7688 44.4211C12.6599 44.6672 12.5014 44.8882 12.3033 45.0704C12.1052 45.2525 11.8717 45.3919 11.6173 45.4798C11.3629 45.5677 11.0932 45.6022 10.8249 45.5813C10.2815 45.5767 9.74272 45.6816 9.24071 45.8897C8.73871 46.0977 8.2837 46.4047 7.9028 46.7922C7.34049 47.3729 6.96061 48.1056 6.81009 48.8998C6.65957 49.694 6.74501 50.5149 7.05585 51.2611C7.36669 52.0073 7.88931 52.646 8.55915 53.0985C9.22899 53.551 10.0167 53.7973 10.825 53.807L54.4357 53.8071C55.4847 53.7999 56.491 53.3914 57.2481 52.6654C58.0052 51.9395 58.4556 50.9512 58.5069 49.9035C58.5581 48.8558 58.2062 47.8283 57.5236 47.0319C56.8409 46.2356 55.8792 45.7308 54.836 45.6213ZM25.165 12.2277C23.2531 13.4682 21.682 15.1674 20.5948 17.1704C19.5076 19.1735 18.9389 21.4168 18.9406 23.6958C18.9365 23.9586 18.8293 24.2091 18.642 24.3935C18.4548 24.5778 18.2026 24.6812 17.9398 24.6812C17.6771 24.6811 17.4249 24.5778 17.2377 24.3935C17.0504 24.2091 16.9432 23.9585 16.9392 23.6958C16.9379 21.0829 17.59 18.5112 18.8362 16.2147C20.0823 13.9182 21.883 11.9697 24.0742 10.5465C24.2971 10.4067 24.5661 10.3601 24.823 10.4169C25.08 10.4737 25.3042 10.6293 25.4475 10.85C25.5907 11.0707 25.6413 11.339 25.5885 11.5967C25.5356 11.8545 25.3835 12.0811 25.165 12.2277Z" fill="#F4C842"/>
<path d="M9.63232 15.5868C9.69153 15.8452 9.85086 16.0696 10.0753 16.2106C10.2998 16.3517 10.5711 16.3979 10.8296 16.3391C11.0881 16.2804 11.3128 16.1214 11.4542 15.8972C11.5956 15.6729 11.6423 15.4017 11.584 15.1431C11.3414 14.0649 11.5339 12.9345 12.1196 11.9972C12.7053 11.06 13.637 10.3916 14.7125 10.1371C14.9662 10.072 15.1843 9.91012 15.32 9.68611C15.4557 9.46209 15.4981 9.19382 15.4383 8.93884C15.3785 8.68387 15.2211 8.46249 14.9999 8.32221C14.7788 8.18193 14.5114 8.13391 14.2553 8.18846C12.6667 8.56604 11.2908 9.55419 10.4255 10.9389C9.56027 12.3236 9.27529 13.9935 9.63232 15.5868Z" fill="#F4C842"/>
<path d="M7.5958 15.8888C7.12766 13.8032 7.50025 11.6172 8.63284 9.80447C9.76542 7.99175 11.5667 6.69838 13.6464 6.20468C13.7745 6.17516 13.8955 6.12071 14.0025 6.04443C14.1096 5.96814 14.2005 5.87152 14.2702 5.76009C14.3399 5.64865 14.387 5.52458 14.4087 5.39496C14.4305 5.26533 14.4265 5.13269 14.3969 5.00462C14.3674 4.87654 14.313 4.75553 14.2367 4.64849C14.1604 4.54146 14.0638 4.4505 13.9523 4.38081C13.8409 4.31111 13.7168 4.26405 13.5872 4.24231C13.4576 4.22056 13.3249 4.22456 13.1969 4.25408C10.5946 4.8582 8.33807 6.46978 6.92238 8.73536C5.50668 11.0009 5.04735 13.7355 5.64514 16.3393C5.70488 16.598 5.86493 16.8223 6.09009 16.963C6.31524 17.1036 6.58705 17.1491 6.84572 17.0894C7.1044 17.0296 7.32874 16.8696 7.46941 16.6444C7.61008 16.4193 7.65554 16.1475 7.5958 15.8888Z" fill="#F4C842"/>
</svg>
